<svg width="15" height="18" viewBox="0 0 15 18" fill="none" xmlns="http://www.w3.org/2000/svg">
<path d="M2.25 6.74715V11.2702C2.25159 11.412 2.22496 11.5528 2.17165 11.6842C2.11834 11.8157 2.03942 11.9353 1.93947 12.0359C1.83953 12.1366 1.72056 12.2164 1.58949 12.2707C1.45842 12.325 1.31787 12.3527 1.176 12.3522C0.879216 12.3555 0.592331 12.2455 0.373819 12.0447C0.155307 11.8438 0.0216179 11.5672 0 11.2712V6.74715C0.0230787 6.4523 0.157435 6.17726 0.37582 5.97782C0.594205 5.77838 0.88027 5.66946 1.176 5.67315C1.46044 5.67447 1.73285 5.78804 1.93398 5.98917C2.13511 6.1903 2.24868 6.46271 2.25 6.74715ZM2.672 12.8802C2.67174 13.032 2.70146 13.1825 2.75946 13.3228C2.81746 13.4632 2.9026 13.5908 3.01 13.6982C3.11739 13.8056 3.24494 13.8907 3.38531 13.9487C3.52568 14.0067 3.67612 14.0364 3.828 14.0362H4.605L4.617 16.4231C4.617 16.7091 4.73057 16.9832 4.93274 17.1854C5.1349 17.3876 5.4091 17.5012 5.695 17.5012C5.9809 17.5012 6.2551 17.3876 6.45726 17.1854C6.65943 16.9832 6.773 16.7091 6.773 16.4231V14.0362H8.227V16.4231C8.227 16.7106 8.34121 16.9864 8.5445 17.1897C8.74779 17.3929 9.02351 17.5071 9.311 17.5071C9.59849 17.5071 9.87422 17.3929 10.0775 17.1897C10.2808 16.9864 10.395 16.7106 10.395 16.4231V14.0362H11.184C11.3353 14.0356 11.485 14.0053 11.6245 13.9469C11.7641 13.8886 11.8908 13.8033 11.9974 13.6959C12.104 13.5886 12.1884 13.4613 12.2458 13.3213C12.3032 13.1813 12.3325 13.0314 12.332 12.8802V5.87215H2.672V12.8802ZM12.36 5.49315H2.629C2.64252 4.67943 2.88197 3.88548 3.32061 3.19997C3.75926 2.51446 4.37982 1.96438 5.113 1.61115L4.367 0.23215C4.35728 0.214947 4.35105 0.195998 4.34865 0.176386C4.34626 0.156773 4.34775 0.136881 4.35304 0.117845C4.35834 0.0988091 4.36733 0.0810021 4.3795 0.0654406C4.39168 0.0498792 4.4068 0.0368681 4.424 0.0271502C4.4412 0.0174324 4.46015 0.0111982 4.47976 0.00880345C4.49938 0.00640872 4.51927 0.00790039 4.53831 0.0131933C4.55734 0.0184863 4.57515 0.0274768 4.59071 0.0396516C4.60627 0.0518264 4.61928 0.0669471 4.629 0.0841503L5.387 1.47515C6.05396 1.18344 6.77404 1.03286 7.502 1.03286C8.22996 1.03286 8.95004 1.18344 9.617 1.47515L10.371 0.0881502C10.3797 0.0691385 10.3923 0.0521412 10.4079 0.0382354C10.4235 0.0243295 10.4418 0.0138182 10.4617 0.00736698C10.4816 0.000915783 10.5026 -0.0013346 10.5234 0.000758493C10.5442 0.00285159 10.5644 0.00924248 10.5826 0.0195263C10.6008 0.0298102 10.6166 0.0437628 10.6292 0.0605005C10.6417 0.0772381 10.6506 0.096396 10.6554 0.11676C10.6601 0.137125 10.6606 0.158252 10.6567 0.178803C10.6529 0.199355 10.6448 0.218883 10.633 0.23615L9.887 1.61115C10.6172 1.96698 11.2347 2.518 11.671 3.20318C12.1073 3.88836 12.3454 4.68096 12.359 5.49315H12.36ZM5.691 3.32515C5.691 3.27131 5.6804 3.21799 5.65979 3.16825C5.63919 3.11851 5.60899 3.07331 5.57091 3.03524C5.53284 2.99716 5.48764 2.96696 5.4379 2.94636C5.38816 2.92576 5.33484 2.91515 5.281 2.91515C5.17226 2.91515 5.06798 2.95835 4.99109 3.03524C4.9142 3.11213 4.871 3.21641 4.871 3.32515C4.871 3.43389 4.9142 3.53817 4.99109 3.61506C5.06798 3.69195 5.17226 3.73515 5.281 3.73515C5.33484 3.73515 5.38816 3.72455 5.4379 3.70394C5.48764 3.68334 5.53284 3.65314 5.57091 3.61506C5.60899 3.57699 5.63919 3.53179 5.65979 3.48205C5.6804 3.43231 5.691 3.37899 5.691 3.32515ZM10.121 3.32515C10.119 3.24649 10.0939 3.17016 10.0488 3.10571C10.0036 3.04126 9.94051 2.99155 9.86727 2.9628C9.79403 2.93406 9.71394 2.92755 9.63701 2.94409C9.56009 2.96064 9.48976 2.9995 9.43481 3.05582C9.37987 3.11214 9.34275 3.18341 9.32811 3.26072C9.31347 3.33803 9.32195 3.41793 9.3525 3.49044C9.38305 3.56295 9.4343 3.62484 9.49985 3.66837C9.56539 3.7119 9.64232 3.73513 9.721 3.73515C9.82816 3.73305 9.93019 3.68886 10.005 3.61214C10.0799 3.53542 10.1215 3.43233 10.121 3.32515ZM13.821 5.67315C13.6801 5.67315 13.5406 5.70095 13.4105 5.75496C13.2803 5.80897 13.1621 5.88813 13.0626 5.9879C12.9631 6.08767 12.8843 6.20609 12.8307 6.33637C12.777 6.46666 12.7496 6.60625 12.75 6.74715V11.2702C12.7495 11.4117 12.7768 11.552 12.8305 11.683C12.8842 11.814 12.9632 11.9331 13.0629 12.0336C13.1626 12.1341 13.2812 12.2139 13.4118 12.2686C13.5424 12.3232 13.6824 12.3516 13.824 12.3522C14.1211 12.3562 14.4086 12.2463 14.6273 12.0451C14.846 11.8439 14.9793 11.5666 15 11.2702V6.74715C14.9788 6.45159 14.845 6.17543 14.6262 5.97561C14.4074 5.77578 14.1203 5.66752 13.824 5.67315H13.821Z" fill="#80CF60"/>
</svg>
