<svg width="600" height="326" viewBox="0 0 600 326" fill="none" xmlns="http://www.w3.org/2000/svg">
<path d="M222.629 81.9684H218.433C217.988 77.4245 216.887 72.9419 215.153 68.6175L219.08 67.2501C220.398 66.791 221.443 65.9148 221.985 64.8143C222.527 63.7137 222.522 62.4788 221.971 61.3814C221.42 60.284 220.367 59.4139 219.045 58.9625C217.723 58.5111 216.24 58.5154 214.922 58.9744L210.942 60.36C208.493 56.4448 205.509 52.7782 202.049 49.4331L205.151 46.8521C205.651 46.4357 206.048 45.9413 206.319 45.3973C206.589 44.8532 206.729 44.2701 206.729 43.6813C206.729 43.0924 206.589 42.5093 206.319 41.9652C206.048 41.4211 205.651 40.9268 205.151 40.5104C204.651 40.094 204.057 39.7637 203.404 39.5384C202.751 39.313 202.05 39.197 201.343 39.197C200.636 39.197 199.935 39.313 199.282 39.5384C198.628 39.7637 198.035 40.094 197.535 40.5104L194.414 43.108C190.262 40.1684 185.707 37.6493 180.842 35.6033L182.526 32.1898C183.063 31.09 183.054 29.8578 182.502 28.7633C181.95 27.6688 180.899 26.8012 179.579 26.3508C178.26 25.9003 176.78 25.9038 175.464 26.3604C174.148 26.817 173.102 27.6895 172.558 28.7866L170.877 32.1953C165.839 30.8559 160.63 30.0086 155.357 29.6703V25.9617C155.338 24.7824 154.762 23.6567 153.754 22.8283C152.745 21.9999 151.386 21.5354 149.969 21.5354C148.553 21.5354 147.193 21.9999 146.185 22.8283C145.177 23.6567 144.601 24.7824 144.582 25.9617V29.6703C139.152 30.0209 133.792 30.9107 128.616 32.3208L126.904 28.916C126.353 27.8185 125.301 26.9484 123.979 26.4969C122.657 26.0454 121.174 26.0496 119.856 26.5086C118.538 26.9675 117.493 27.8436 116.951 28.9441C116.408 30.0446 116.413 31.2794 116.965 32.3768L118.671 35.7816C113.964 37.7957 109.552 40.2543 105.522 43.1088L102.394 40.5104C101.384 39.6695 100.015 39.197 98.5861 39.197C97.1577 39.197 95.7877 39.6695 94.7777 40.5104C93.7677 41.3514 93.2002 42.492 93.2002 43.6813C93.2002 44.8705 93.7677 46.0111 94.7777 46.8521L97.8796 49.4347C94.3181 52.8797 91.2608 56.6648 88.772 60.7103L84.785 59.3484C83.4676 58.9166 81.999 58.9339 80.6968 59.3965C79.3946 59.8592 78.3635 60.73 77.8264 61.8206C77.2893 62.9113 77.2894 64.1342 77.8267 65.2248C78.3639 66.3154 79.3952 67.1861 80.6975 67.6485L84.6296 68.9899C82.9835 73.1999 81.9339 77.5556 81.5021 81.9684H77.3085C75.8921 81.984 74.54 82.4635 73.545 83.303C72.5501 84.1424 71.9922 85.2744 71.9922 86.4538C71.9922 87.6332 72.5501 88.7652 73.545 89.6046C74.54 90.4441 75.8921 90.9236 77.3085 90.9392H81.4595C81.8601 95.498 82.9207 99.9999 84.6182 104.347L80.8577 105.656C80.205 105.883 79.6125 106.215 79.114 106.633C78.6155 107.051 78.2207 107.547 77.9522 108.091C77.6837 108.636 77.5468 109.22 77.5492 109.809C77.5516 110.398 77.6933 110.981 77.9662 111.524C78.5174 112.622 79.5696 113.492 80.8914 113.943C81.5459 114.167 82.2469 114.281 82.9543 114.279C83.6617 114.277 84.3617 114.159 85.0144 113.932L88.754 112.631C91.1849 116.591 94.1604 120.302 97.6208 123.689L94.7777 126.056C93.7672 126.897 93.1992 128.038 93.1989 129.228C93.1985 130.417 93.7658 131.558 94.7758 132.4C95.7859 133.241 97.156 133.714 98.5847 133.714C100.014 133.714 101.384 133.242 102.394 132.401L105.217 130.051C109.393 133.045 113.985 135.61 118.895 137.693L117.404 140.72C117.136 141.265 116.999 141.849 117.001 142.438C117.004 143.027 117.145 143.61 117.418 144.153C117.691 144.696 118.09 145.19 118.592 145.605C119.094 146.02 119.689 146.349 120.344 146.572C120.998 146.796 121.699 146.91 122.407 146.908C123.114 146.906 123.814 146.788 124.467 146.561C125.119 146.333 125.712 146.001 126.211 145.583C126.709 145.165 127.104 144.67 127.372 144.125L128.849 141.127C133.951 142.497 139.229 143.363 144.573 143.706V146.949C144.592 148.128 145.168 149.254 146.176 150.082C147.185 150.911 148.544 151.375 149.961 151.375C151.377 151.375 152.737 150.911 153.745 150.082C154.753 149.254 155.329 148.128 155.348 146.949V143.701C160.851 143.347 166.281 142.438 171.521 140.995L173.026 143.989C173.577 145.086 174.629 145.956 175.951 146.408C177.272 146.859 178.755 146.855 180.073 146.396C181.391 145.937 182.436 145.061 182.978 143.961C183.52 142.86 183.515 141.626 182.963 140.528L181.447 137.508C186.203 135.46 190.656 132.957 194.717 130.051L197.539 132.4C198.549 133.241 199.919 133.713 201.348 133.713C202.776 133.713 204.146 133.241 205.156 132.4C206.166 131.559 206.734 130.418 206.734 129.229C206.734 128.039 206.166 126.899 205.156 126.058L202.313 123.691C205.877 120.203 208.927 116.373 211.396 112.281L215.146 113.561C216.468 114.012 217.951 114.008 219.269 113.549C220.587 113.09 221.632 112.214 222.175 111.113C222.717 110.013 222.712 108.778 222.161 107.681C221.609 106.583 220.557 105.713 219.235 105.261L215.469 103.974C217.079 99.7424 218.088 95.3677 218.473 90.94H222.626C224.043 90.9243 225.395 90.4449 226.39 89.6054C227.385 88.766 227.943 87.634 227.943 86.4546C227.943 85.2752 227.385 84.1432 226.39 83.3038C225.395 82.4643 224.043 81.9848 222.626 81.9692L222.629 81.9684ZM199.953 103.538C199.722 104.013 199.599 104.52 199.593 105.033C197.168 109.56 193.868 113.725 189.823 117.362C189.201 117.57 188.637 117.881 188.164 118.276C187.692 118.671 187.321 119.142 187.075 119.661C182.889 122.93 178.108 125.628 172.91 127.654C172.194 127.629 171.479 127.734 170.817 127.962C170.147 128.198 169.549 128.555 169.066 129.007C163.63 130.711 157.898 131.673 152.094 131.856C151.434 131.585 150.709 131.444 149.974 131.444C149.239 131.444 148.514 131.585 147.854 131.856C142.18 131.678 136.574 130.757 131.244 129.128C130.757 128.671 130.152 128.313 129.474 128.081C128.81 127.856 128.095 127.755 127.38 127.785C122.05 125.744 117.151 123 112.872 119.658C112.626 119.139 112.255 118.668 111.783 118.273C111.31 117.878 110.746 117.567 110.124 117.359C106.167 113.797 102.921 109.73 100.509 105.313C100.496 104.28 100.001 103.293 99.1296 102.558C96.9882 97.8083 95.8266 92.7913 95.6941 87.719C96.0361 86.9191 96.0404 86.046 95.7065 85.2438C95.8953 80.1196 97.1354 75.0601 99.3732 70.284C99.8785 69.7497 100.198 69.1103 100.297 68.4352C102.947 63.4584 106.65 58.9187 111.229 55.0331C111.606 54.8303 111.929 54.5649 112.177 54.2535C116.958 50.3833 122.552 47.2764 128.68 45.087C128.83 45.0459 128.983 45.0238 129.129 44.9725C129.251 44.9284 129.356 44.8668 129.473 44.8147C135.896 42.6268 142.766 41.4898 149.706 41.466C149.801 41.466 149.882 41.4896 149.973 41.4896C150.064 41.4896 150.149 41.4691 150.239 41.466C157.062 41.4896 163.817 42.59 170.147 44.709C170.257 44.7548 170.356 44.8131 170.471 44.8534C170.62 44.9047 170.776 44.9268 170.928 44.967C177.186 47.1602 182.896 50.3085 187.764 54.2495C187.888 54.3937 188.023 54.5313 188.168 54.6614C188.341 54.796 188.524 54.9207 188.716 55.0346C193.21 58.846 196.859 63.2886 199.496 68.1575C199.604 68.8266 199.927 69.4592 200.431 69.9881C202.756 74.8497 204.045 80.0118 204.239 85.2422C204.081 85.6365 203.996 86.0488 203.989 86.4644C203.997 86.8907 204.084 87.3135 204.247 87.7175C204.124 92.6803 203.012 97.5918 200.959 102.252C200.53 102.624 200.189 103.061 199.953 103.538Z" fill="#68D2C6"/>
<path d="M144.803 238.2V283.559C144.809 285.576 145.774 287.509 147.486 288.935C149.199 290.361 151.519 291.166 153.942 291.172H503.104C505.526 291.166 507.848 290.362 509.56 288.935C511.273 287.509 512.238 285.576 512.245 283.559V238.2H144.803Z" fill="#D0E5FC"/>
<path d="M512.246 238.2V88.8749C512.238 86.8582 511.273 84.9258 509.56 83.4996C507.848 82.0734 505.527 81.2693 503.105 81.2628H153.942C151.52 81.2693 149.199 82.0734 147.487 83.4997C145.774 84.9259 144.809 86.8583 144.803 88.8749V238.2H512.246Z" fill="#C0DBFB"/>
<path d="M502.542 89.5132H154.503V230.076H502.542V89.5132Z" fill="url(#paint0_linear_1934_16302)"/>
<path d="M366.541 291.172H290.506C291.764 317.829 233.928 325.741 233.928 325.741H423.12C423.12 325.741 365.284 317.829 366.541 291.172Z" fill="#A4CCF4"/>
<path d="M348.144 262.207C348.144 264.966 347.161 267.663 345.32 269.957C343.479 272.25 340.862 274.038 337.801 275.094C334.739 276.15 331.371 276.426 328.121 275.888C324.871 275.349 321.885 274.021 319.542 272.07C317.199 270.119 315.603 267.634 314.957 264.928C314.31 262.222 314.642 259.417 315.91 256.868C317.178 254.319 319.325 252.14 322.08 250.608C324.836 249.075 328.075 248.256 331.388 248.256C335.832 248.256 340.094 249.726 343.236 252.342C346.378 254.959 348.144 258.507 348.144 262.207Z" fill="#A4CCF4"/>
<path d="M357.834 0H541.356C544.109 0 546.749 0.910471 548.696 2.53112C550.642 4.15177 551.736 6.34984 551.736 8.64178V97.3794C551.736 98.5143 551.467 99.6381 550.946 100.687C550.424 101.735 549.66 102.688 548.696 103.491C547.732 104.293 546.588 104.93 545.329 105.364C544.069 105.798 542.719 106.022 541.356 106.022H357.834C355.081 106.022 352.441 105.111 350.494 103.491C348.548 101.87 347.454 99.6716 347.454 97.3794V8.64257C347.454 6.35042 348.548 4.15215 350.494 2.53135C352.441 0.910554 355.081 0 357.834 0V0Z" fill="url(#paint1_linear_1934_16302)"/>
<path d="M551.736 15.3803H347.454V35.918H551.736V15.3803Z" fill="#4C48AD"/>
<path d="M480.818 53.0477H366.19V58.2823H480.818V53.0477Z" fill="url(#paint2_linear_1934_16302)"/>
<path d="M443.449 69.1547H366.19V74.3909H443.449V69.1547Z" fill="url(#paint3_linear_1934_16302)"/>
<path d="M592.939 226.969C548.368 224.124 524.798 192.842 524.798 192.842C524.798 192.842 501.226 224.124 456.658 226.969C456.658 226.969 417.209 300.81 524.798 325.74C632.387 300.81 592.939 226.969 592.939 226.969Z" fill="url(#paint4_linear_1934_16302)"/>
<path d="M577.093 237.33C542.885 235.146 524.798 211.139 524.798 211.139C524.798 211.139 506.709 235.146 472.503 237.33C472.503 237.33 442.227 294 524.798 313.133C607.368 294 577.093 237.33 577.093 237.33Z" fill="url(#paint5_linear_1934_16302)"/>
<path d="M544.778 249.946C544.354 245.777 542.065 241.893 538.365 239.062C534.665 236.231 529.823 234.661 524.798 234.661C519.774 234.661 514.932 236.231 511.232 239.062C507.532 241.893 505.243 245.777 504.819 249.946H497.18V277.319C497.196 282.107 499.488 286.695 503.554 290.081C507.621 293.467 513.131 295.375 518.882 295.388H530.717C536.468 295.375 541.979 293.467 546.046 290.081C550.112 286.695 552.404 282.107 552.42 277.319V249.946H544.778ZM514.546 284.308L519.948 272.322C518.352 271.518 517.117 270.301 516.43 268.858C515.743 267.414 515.643 265.823 516.144 264.328C516.645 262.832 517.721 261.515 519.206 260.576C520.691 259.637 522.505 259.129 524.37 259.129C526.234 259.129 528.048 259.637 529.533 260.576C531.019 261.515 532.094 262.832 532.595 264.328C533.096 265.823 532.996 267.414 532.309 268.858C531.622 270.301 530.387 271.518 528.792 272.322L534.194 284.308H514.546ZM511.684 249.946C512.096 247.292 513.654 244.855 516.067 243.088C518.481 241.322 521.584 240.348 524.797 240.348C528.01 240.348 531.113 241.322 533.527 243.088C535.94 244.855 537.498 247.292 537.91 249.946H511.684Z" fill="url(#paint6_linear_1934_16302)"/>
<path d="M331.177 183.739C324.962 183.739 318.886 182.205 313.719 179.33C308.551 176.455 304.523 172.369 302.144 167.588C299.766 162.807 299.143 157.547 300.356 152.471C301.568 147.396 304.561 142.734 308.956 139.075C313.35 135.416 318.95 132.924 325.045 131.914C331.141 130.905 337.46 131.423 343.202 133.403C348.944 135.383 353.852 138.737 357.305 143.039C360.758 147.342 362.601 152.401 362.601 157.575C362.592 164.512 359.278 171.162 353.387 176.067C347.496 180.972 339.509 183.731 331.177 183.739ZM331.177 134.265C325.64 134.265 320.228 135.632 315.624 138.194C311.021 140.755 307.433 144.396 305.314 148.655C303.196 152.914 302.641 157.601 303.722 162.122C304.802 166.643 307.469 170.796 311.384 174.056C315.299 177.316 320.288 179.535 325.718 180.435C331.149 181.334 336.778 180.872 341.893 179.108C347.008 177.344 351.381 174.356 354.457 170.523C357.533 166.69 359.175 162.184 359.175 157.574C359.166 151.394 356.213 145.47 350.964 141.1C345.716 136.731 338.599 134.273 331.177 134.267V134.265Z" fill="#68D2C6"/>
<path d="M347.123 144.098C340.181 151.328 333.238 158.559 326.294 165.79C322.429 163.809 318.564 161.83 314.698 159.852C311.156 158.037 307.931 162.668 311.453 164.474C316.1 166.851 320.747 169.229 325.393 171.609C326.004 171.912 326.72 172.035 327.426 171.959C328.132 171.883 328.786 171.612 329.286 171.19C336.746 163.421 344.206 155.651 351.668 147.882C354.227 145.215 349.708 141.398 347.123 144.098Z" fill="#68D2C6"/>
<path d="M378.07 209.293C378.069 211.933 376.809 214.465 374.567 216.331C372.325 218.198 369.284 219.246 366.114 219.247H296.665C293.495 219.246 290.454 218.198 288.213 216.331C285.971 214.465 284.711 211.933 284.711 209.293C284.711 207.986 285.02 206.692 285.621 205.485C286.222 204.277 287.102 203.18 288.212 202.256C289.323 201.332 290.64 200.599 292.091 200.099C293.541 199.599 295.096 199.342 296.665 199.342H366.114C367.684 199.342 369.238 199.599 370.689 200.099C372.139 200.599 373.457 201.332 374.568 202.256C375.678 203.18 376.559 204.277 377.16 205.485C377.761 206.692 378.07 207.986 378.07 209.293Z" fill="#68D2C6"/>
<path d="M321.411 204.731C324.189 204.731 325.781 205.875 325.781 207.887C325.781 210.007 324.189 211.229 321.411 211.229H319.239V213.827H316.775V204.729L321.411 204.731ZM319.239 209.514H321.285C322.659 209.514 323.438 208.993 323.438 207.954C323.438 206.94 322.659 206.434 321.285 206.434H319.239V209.514Z" fill="url(#paint7_linear_1934_16302)"/>
<path d="M328.743 212.063L327.884 213.832H325.339L330.085 204.734H332.629L337.295 213.832H334.658L333.797 212.063H328.743ZM331.287 206.879L329.554 210.415H333.004L331.287 206.879Z" fill="url(#paint8_linear_1934_16302)"/>
<path d="M342.864 213.829H340.4V210.944L336.357 204.731H338.839L341.633 208.811L344.366 204.731H346.846L342.865 210.891L342.864 213.829Z" fill="url(#paint9_linear_1934_16302)"/>
<path d="M101.681 146.891L41.6025 166.55L94.044 277.643L154.122 257.984L101.681 146.891Z" fill="#75DEBE"/>
<path opacity="0.4" d="M107.403 266.921L135.568 257.705C135.12 256.755 134.9 255.741 134.923 254.72C134.945 253.699 135.208 252.692 135.698 251.756C136.188 250.82 136.894 249.974 137.777 249.265C138.66 248.557 139.701 248 140.842 247.626L100.43 162.003C98.1257 162.756 95.5565 162.717 93.287 161.894C91.0176 161.071 89.2335 159.531 88.3268 157.613L60.1598 166.828C61.0653 168.747 61.0183 170.886 60.0293 172.776C59.0402 174.666 57.19 176.151 54.8857 176.905L95.301 262.531C96.4418 262.158 97.6598 261.975 98.8854 261.993C100.111 262.012 101.32 262.231 102.444 262.639C103.568 263.046 104.584 263.634 105.435 264.369C106.286 265.104 106.955 265.971 107.403 266.921Z" fill="url(#paint10_linear_1934_16302)"/>
<path d="M90.4392 196.535C94.1763 195.312 98.265 195.039 102.188 195.75C106.112 196.462 109.694 198.126 112.481 200.533C115.268 202.939 117.136 205.98 117.847 209.27C118.559 212.561 118.083 215.953 116.479 219.018C114.875 222.083 112.216 224.683 108.837 226.489C105.458 228.296 101.512 229.228 97.4974 229.167C93.4827 229.106 89.5798 228.055 86.2823 226.148C82.9848 224.24 80.4407 221.561 78.9719 218.449C77.0029 214.277 77.1048 209.625 79.2553 205.515C81.4058 201.405 85.4286 198.175 90.4392 196.535Z" fill="url(#paint11_linear_1934_16302)"/>
<g opacity="0.4">
<path opacity="0.4" d="M98.6693 203.624C102.289 202.44 105.532 204.051 107.483 207.09L111.937 205.634L113.347 208.62L108.834 210.098C109.504 212.432 109.391 214.875 108.507 217.159L103.908 216.851C104.944 214.539 105.023 212.006 104.133 209.653C103.368 208.032 102.197 207.297 100.911 207.716C96.9606 209.007 103.647 217.541 96.2318 219.968C93.0332 221.015 89.9029 219.796 87.8729 216.954L83.5362 218.374L82.127 215.388L86.3414 214.009C85.6552 212.016 85.5403 209.918 86.0059 207.882L90.6374 208.118C90.1873 210.162 90.3277 212.265 91.0468 214.254C91.6685 215.572 92.6579 216.28 93.7952 215.911C97.659 214.645 91.1236 206.061 98.6693 203.624Z" fill="url(#paint12_linear_1934_16302)"/>
</g>
<path d="M117.507 158.321L100.159 276.852L164.258 283.356L181.605 164.825L117.507 158.321Z" fill="#267C26"/>
<path opacity="0.4" d="M163.657 168.986L133.615 165.947C133.316 167.993 132.053 169.857 130.104 171.128C128.154 172.399 125.679 172.973 123.221 172.725L109.889 264.048C112.346 264.297 114.585 265.349 116.111 266.972C117.638 268.595 118.328 270.656 118.03 272.703L148.072 275.743C148.22 274.73 148.606 273.75 149.209 272.861C149.811 271.972 150.618 271.191 151.584 270.561C152.549 269.932 153.654 269.467 154.835 269.193C156.016 268.919 157.25 268.842 158.468 268.965L171.796 177.639C169.339 177.39 167.101 176.339 165.574 174.716C164.048 173.093 163.358 171.032 163.657 168.986Z" fill="url(#paint13_linear_1934_16302)"/>
<path d="M138.392 237.626C134.406 237.222 130.653 235.843 127.608 233.664C124.563 231.484 122.363 228.602 121.286 225.381C120.208 222.161 120.302 218.746 121.555 215.57C122.808 212.394 125.165 209.598 128.326 207.537C131.488 205.475 135.313 204.241 139.317 203.989C143.321 203.738 147.325 204.481 150.822 206.124C154.319 207.767 157.152 210.237 158.964 213.22C160.775 216.204 161.483 219.568 160.998 222.887C160.348 227.337 157.601 231.39 153.361 234.154C149.122 236.918 143.737 238.167 138.392 237.626Z" fill="url(#paint14_linear_1934_16302)"/>
<g opacity="0.4">
<path opacity="0.4" d="M135.2 228.129C131.339 227.741 129.407 225.039 129.419 221.59L124.671 221.109L125.135 217.923L129.949 218.41C130.691 216.09 132.185 213.985 134.267 212.324L138.138 214.415C135.906 216.039 134.389 218.237 133.83 220.661C133.578 222.386 134.19 223.502 135.561 223.637C139.774 224.065 138.761 213.912 146.673 214.712C150.085 215.057 152.143 217.366 152.304 220.671L156.932 221.137L156.466 224.326L151.971 223.871C151.437 225.896 150.34 227.788 148.767 229.394L144.829 227.353C146.39 225.733 147.467 223.828 147.971 221.794C148.178 220.388 147.708 219.37 146.499 219.247C142.383 218.831 143.232 228.97 135.2 228.129Z" fill="url(#paint15_linear_1934_16302)"/>
</g>
<path d="M44.2787 218.537H203.4C206.152 218.538 208.791 219.449 210.736 221.07C212.682 222.69 213.775 224.888 213.775 227.179V317.099C213.775 319.391 212.681 321.589 210.734 323.21C208.788 324.831 206.148 325.741 203.395 325.741H44.2787C41.5257 325.741 38.8854 324.83 36.9388 323.21C34.9921 321.589 33.8984 319.391 33.8984 317.098V227.18C33.8984 224.887 34.9921 222.689 36.9388 221.068C38.8854 219.448 41.5257 218.537 44.2787 218.537V218.537Z" fill="url(#paint16_linear_1934_16302)"/>
<g opacity="0.5">
<path opacity="0.5" d="M176.375 321.349H166.3V319.929H176.375V321.349ZM156.224 321.349H146.149V319.929H156.224V321.349ZM136.073 321.349H125.998V319.929H136.073V321.349ZM115.922 321.349H105.847V319.929H115.922V321.349ZM95.771 321.349H85.6949V319.929H95.7719L95.771 321.349ZM75.6188 321.349H65.5437V319.929H75.6188V321.349ZM186.506 321.311L186.393 319.891C189.617 319.712 192.734 318.857 195.454 317.405L196.375 318.602C193.413 320.184 190.018 321.115 186.507 321.31L186.506 321.311ZM55.314 320.271C52.0179 319.25 49.08 317.56 46.7666 315.355L48.0546 314.418C50.1792 316.446 52.8788 318 55.9082 318.939L55.314 320.271ZM203.48 312.291L201.985 311.604C203.545 309.248 204.363 306.601 204.365 303.911L206.071 303.848V303.911C206.07 306.841 205.178 309.724 203.48 312.291ZM42.084 307.631C41.7629 306.409 41.6011 305.162 41.6016 303.911V299.12H43.3075V303.915C43.3074 305.063 43.4561 306.207 43.751 307.328L42.084 307.631ZM206.071 295.458H204.365V287.068H206.071V295.458ZM43.3103 290.73H41.6044V282.338H43.3103V290.73ZM206.073 278.682H204.367V270.291H206.073V278.682ZM43.3103 273.953H41.6044V265.562H43.3103V273.953ZM206.073 261.904H204.367V253.516H206.073V261.904ZM43.3103 257.174H41.6044V248.786H43.3103V257.174ZM206.073 245.126H204.367V240.364C204.367 239.207 204.216 238.053 203.917 236.923L205.584 236.616C205.911 237.847 206.075 239.104 206.075 240.365L206.073 245.126ZM41.6044 240.396V240.363C41.6062 237.445 42.4908 234.574 44.1765 232.016L45.6729 232.698C44.1251 235.048 43.3129 237.684 43.3112 240.363L41.6044 240.396ZM199.588 229.835C197.46 227.809 194.755 226.259 191.722 225.327L192.314 223.992C195.612 225.009 198.553 226.696 200.87 228.9L199.588 229.835ZM52.1866 226.885L51.2626 225.69C54.2226 224.105 57.6155 223.169 61.1264 222.968L61.2429 224.388C58.0195 224.571 54.904 225.43 52.1866 226.885ZM182.091 224.352H172.017V222.931H182.094L182.091 224.352ZM161.937 224.352H151.865V222.931H161.94L161.937 224.352ZM141.786 224.352H131.716V222.931H141.789L141.786 224.352ZM121.635 224.352H111.564V222.931H121.639L121.635 224.352ZM101.484 224.352H91.4125V222.931H101.488L101.484 224.352ZM81.3345 224.352H71.2622V222.931H81.3392L81.3345 224.352Z" fill="#E1F5FC"/>
</g>
<path d="M176.959 253.238H217.021C219.937 253.238 222.733 254.203 224.795 255.919C226.856 257.636 228.015 259.964 228.015 262.391V281.881C228.015 284.309 226.856 286.637 224.795 288.353C222.733 290.07 219.937 291.034 217.021 291.034H176.959C174.044 291.034 171.247 290.07 169.186 288.353C167.124 286.637 165.966 284.309 165.966 281.881V262.391C165.966 259.964 167.124 257.636 169.186 255.919C171.247 254.203 174.044 253.238 176.959 253.238V253.238Z" fill="#FA6758"/>
<path d="M189.946 283.691C197.609 283.691 203.821 278.519 203.821 272.139C203.821 265.758 197.609 260.586 189.946 260.586C182.283 260.586 176.07 265.758 176.07 272.139C176.07 278.519 182.283 283.691 189.946 283.691Z" fill="#F14C3B"/>
<path d="M73.4352 313.308H5.12305V325.718H73.4352V313.308Z" fill="url(#paint17_linear_1934_16302)"/>
<path d="M73.4352 319.514H5.12305V325.718H73.4352V319.514Z" fill="url(#paint18_linear_1934_16302)"/>
<g opacity="0.3">
<g opacity="0.3">
<g opacity="0.3">
<path opacity="0.3" d="M10.9225 314.84H7.8623V324.183H10.9225V314.84Z" fill="#E1F5FC"/>
<path opacity="0.3" d="M19.4635 314.84H16.4033V324.183H19.4635V314.84Z" fill="#E1F5FC"/>
</g>
<g opacity="0.3">
<path opacity="0.3" d="M28.0016 314.84H24.9414V324.183H28.0016V314.84Z" fill="#E1F5FC"/>
<path opacity="0.3" d="M36.5406 314.84H33.4805V324.183H36.5406V314.84Z" fill="#E1F5FC"/>
</g>
</g>
<g opacity="0.3">
<g opacity="0.3">
<path opacity="0.3" d="M45.0787 314.84H42.0186V324.183H45.0787V314.84Z" fill="#E1F5FC"/>
<path opacity="0.3" d="M53.6178 314.84H50.5576V324.183H53.6178V314.84Z" fill="#E1F5FC"/>
</g>
<g opacity="0.3">
<path opacity="0.3" d="M62.1559 314.84H59.0957V324.183H62.1559V314.84Z" fill="#E1F5FC"/>
<path opacity="0.3" d="M70.6969 314.84H67.6367V324.183H70.6969V314.84Z" fill="#E1F5FC"/>
</g>
</g>
</g>
<path d="M68.3122 299.087H0V311.499H68.3122V299.087Z" fill="url(#paint19_linear_1934_16302)"/>
<path d="M68.3122 305.295H0V311.499H68.3122V305.295Z" fill="url(#paint20_linear_1934_16302)"/>
<g opacity="0.3">
<g opacity="0.3">
<g opacity="0.3">
<path opacity="0.3" d="M5.79943 300.621H2.73926V309.962H5.79943V300.621Z" fill="#E1F5FC"/>
<path opacity="0.3" d="M14.3404 300.621H11.2783V309.962H14.3404V300.621Z" fill="#E1F5FC"/>
</g>
<g opacity="0.3">
<path opacity="0.3" d="M22.8785 300.621H19.8184V309.962H22.8785V300.621Z" fill="#E1F5FC"/>
<path opacity="0.3" d="M31.4176 300.621H28.3574V309.962H31.4176V300.621Z" fill="#E1F5FC"/>
</g>
</g>
<g opacity="0.3">
<g opacity="0.3">
<path opacity="0.3" d="M39.9557 300.621H36.8955V309.962H39.9557V300.621Z" fill="#E1F5FC"/>
<path opacity="0.3" d="M48.4947 300.621H45.4346V309.962H48.4947V300.621Z" fill="#E1F5FC"/>
</g>
<g opacity="0.3">
<path opacity="0.3" d="M57.0328 300.621H53.9727V309.962H57.0328V300.621Z" fill="#E1F5FC"/>
<path opacity="0.3" d="M65.5738 300.621H62.5117V309.962H65.5738V300.621Z" fill="#E1F5FC"/>
</g>
</g>
</g>
<path d="M73.4352 270.651H5.12305V283.062H73.4352V270.651Z" fill="url(#paint21_linear_1934_16302)"/>
<path d="M73.4352 276.857H5.12305V283.062H73.4352V276.857Z" fill="url(#paint22_linear_1934_16302)"/>
<g opacity="0.3">
<g opacity="0.3">
<g opacity="0.3">
<path opacity="0.3" d="M10.9225 272.184H7.8623V281.526H10.9225V272.184Z" fill="#E1F5FC"/>
<path opacity="0.3" d="M19.4635 272.184H16.4033V281.526H19.4635V272.184Z" fill="#E1F5FC"/>
</g>
<g opacity="0.3">
<path opacity="0.3" d="M28.0016 272.184H24.9414V281.526H28.0016V272.184Z" fill="#E1F5FC"/>
<path opacity="0.3" d="M36.5406 272.184H33.4805V281.526H36.5406V272.184Z" fill="#E1F5FC"/>
</g>
</g>
<g opacity="0.3">
<g opacity="0.3">
<path opacity="0.3" d="M45.0787 272.184H42.0186V281.526H45.0787V272.184Z" fill="#E1F5FC"/>
<path opacity="0.3" d="M53.6178 272.184H50.5576V281.526H53.6178V272.184Z" fill="#E1F5FC"/>
</g>
<g opacity="0.3">
<path opacity="0.3" d="M62.1559 272.184H59.0957V281.526H62.1559V272.184Z" fill="#E1F5FC"/>
<path opacity="0.3" d="M70.6969 272.184H67.6367V281.526H70.6969V272.184Z" fill="#E1F5FC"/>
</g>
</g>
</g>
<path d="M73.4352 284.869H5.12305V297.28H73.4352V284.869Z" fill="url(#paint23_linear_1934_16302)"/>
<path d="M73.4352 291.077H5.12305V297.28H73.4352V291.077Z" fill="url(#paint24_linear_1934_16302)"/>
<g opacity="0.3">
<g opacity="0.3">
<g opacity="0.3">
<path opacity="0.3" d="M10.9225 286.402H7.8623V295.744H10.9225V286.402Z" fill="#E1F5FC"/>
<path opacity="0.3" d="M19.4635 286.402H16.4033V295.744H19.4635V286.402Z" fill="#E1F5FC"/>
</g>
<g opacity="0.3">
<path opacity="0.3" d="M28.0016 286.402H24.9414V295.744H28.0016V286.402Z" fill="#E1F5FC"/>
<path opacity="0.3" d="M36.5406 286.402H33.4805V295.744H36.5406V286.402Z" fill="#E1F5FC"/>
</g>
</g>
<g opacity="0.3">
<g opacity="0.3">
<path opacity="0.3" d="M45.0787 286.402H42.0186V295.744H45.0787V286.402Z" fill="#E1F5FC"/>
<path opacity="0.3" d="M53.6178 286.402H50.5576V295.744H53.6178V286.402Z" fill="#E1F5FC"/>
</g>
<g opacity="0.3">
<path opacity="0.3" d="M62.1559 286.402H59.0957V295.744H62.1559V286.402Z" fill="#E1F5FC"/>
<path opacity="0.3" d="M70.6969 286.402H67.6367V295.744H70.6969V286.402Z" fill="#E1F5FC"/>
</g>
</g>
</g>
<path d="M74.2178 242.124C74.2176 247.766 72.208 253.281 68.443 257.972C64.6781 262.663 59.3269 266.319 53.0662 268.478C46.8055 270.637 39.9164 271.202 33.2702 270.101C26.6239 269.001 20.519 266.284 15.7274 262.294C10.9357 258.305 7.67263 253.222 6.35068 247.688C5.02872 242.154 5.70729 236.418 8.30058 231.206C10.8939 225.993 15.2854 221.538 20.9199 218.404C26.5543 215.269 33.1786 213.596 39.9551 213.596C44.4547 213.596 48.9102 214.334 53.0672 215.767C57.2243 217.201 61.0015 219.302 64.1831 221.951C67.3647 224.6 69.8885 227.745 71.6102 231.207C73.332 234.668 74.218 238.377 74.2178 242.124Z" fill="url(#paint25_linear_1934_16302)"/>
<path d="M67.4757 242.124C67.4761 246.656 65.8622 251.087 62.8381 254.855C59.814 258.624 55.5155 261.562 50.4863 263.296C45.4571 265.031 39.923 265.485 34.5838 264.601C29.2447 263.717 24.3403 261.535 20.4908 258.33C16.6414 255.125 14.0199 251.042 12.9577 246.596C11.8956 242.151 12.4405 237.543 14.5236 233.356C16.6068 229.169 20.1345 225.59 24.6608 223.071C29.187 220.553 34.5085 219.209 39.9522 219.209C47.2513 219.21 54.2513 221.624 59.4128 225.921C64.5742 230.218 67.4745 236.046 67.4757 242.124Z" fill="url(#paint26_linear_1934_16302)"/>
<g opacity="0.5">
<path opacity="0.5" d="M50.633 246.714C50.633 250.639 47.0099 252.972 42.0258 253.459V258.292H37.3498V253.4C33.8892 252.994 30.629 251.805 27.9248 249.961L30.3803 245.779C33.1837 247.856 37.1584 249.186 40.0385 249.186C42.5717 249.186 44.0909 248.406 44.0909 247.012C44.0909 242.73 29.5625 245.226 29.5625 237.185C29.5625 233.713 32.6008 231.315 37.3508 230.67V225.968H42.0268V230.539C45.0309 230.778 47.9256 231.601 50.4785 232.941L48.1026 237.184C45.5347 235.857 42.6244 235.057 39.612 234.852C37.5469 234.852 36.1462 235.466 36.1462 236.7C36.1453 240.877 50.6699 238.541 50.633 246.714Z" fill="url(#paint27_linear_1934_16302)"/>
</g>
<defs>
<linearGradient id="paint0_linear_1934_16302" x1="328.523" y1="89.5132" x2="328.523" y2="230.076" gradientUnits="userSpaceOnUse">
<stop stop-color="#FEFEFE"/>
<stop offset="1" stop-color="#E3F7FE"/>
</linearGradient>
<linearGradient id="paint1_linear_1934_16302" x1="399.954" y1="-18.4478" x2="429.151" y2="137.584" gradientUnits="userSpaceOnUse">
<stop stop-color="#FECA45"/>
<stop offset="1" stop-color="#FF9F2D"/>
</linearGradient>
<linearGradient id="paint2_linear_1934_16302" x1="423.504" y1="53.0477" x2="423.504" y2="58.2823" gradientUnits="userSpaceOnUse">
<stop stop-color="#FEFEFE"/>
<stop offset="1" stop-color="#E3F7FE"/>
</linearGradient>
<linearGradient id="paint3_linear_1934_16302" x1="404.82" y1="69.1547" x2="404.82" y2="74.3909" gradientUnits="userSpaceOnUse">
<stop stop-color="#FEFEFE"/>
<stop offset="1" stop-color="#E3F7FE"/>
</linearGradient>
<linearGradient id="paint4_linear_1934_16302" x1="461.479" y1="292.117" x2="586.006" y2="215.494" gradientUnits="userSpaceOnUse">
<stop stop-color="#65E8F4"/>
<stop offset="1" stop-color="#6B85F4"/>
</linearGradient>
<linearGradient id="paint5_linear_1934_16302" x1="467.084" y1="262.136" x2="582.512" y2="262.136" gradientUnits="userSpaceOnUse">
<stop stop-color="#FEFEFE"/>
<stop offset="1" stop-color="#E3F7FE"/>
</linearGradient>
<linearGradient id="paint6_linear_1934_16302" x1="495.964" y1="280.389" x2="555.787" y2="256.617" gradientUnits="userSpaceOnUse">
<stop stop-color="#65E8F4"/>
<stop offset="1" stop-color="#6B85F4"/>
</linearGradient>
<linearGradient id="paint7_linear_1934_16302" x1="316.775" y1="209.278" x2="325.781" y2="209.278" gradientUnits="userSpaceOnUse">
<stop stop-color="#FEFEFE"/>
<stop offset="1" stop-color="#E3F7FE"/>
</linearGradient>
<linearGradient id="paint8_linear_1934_16302" x1="325.339" y1="209.283" x2="337.295" y2="209.283" gradientUnits="userSpaceOnUse">
<stop stop-color="#FEFEFE"/>
<stop offset="1" stop-color="#E3F7FE"/>
</linearGradient>
<linearGradient id="paint9_linear_1934_16302" x1="336.357" y1="209.28" x2="346.846" y2="209.28" gradientUnits="userSpaceOnUse">
<stop stop-color="#FEFEFE"/>
<stop offset="1" stop-color="#E3F7FE"/>
</linearGradient>
<linearGradient id="paint10_linear_1934_16302" x1="72.249" y1="436.457" x2="201.442" y2="436.457" gradientUnits="userSpaceOnUse">
<stop stop-color="#FEFEFE"/>
<stop offset="1" stop-color="#E3F7FE"/>
</linearGradient>
<linearGradient id="paint11_linear_1934_16302" x1="116.545" y1="436.369" x2="157.107" y2="436.369" gradientUnits="userSpaceOnUse">
<stop stop-color="#47C4B2"/>
<stop offset="1" stop-color="#84D37D"/>
</linearGradient>
<linearGradient id="paint12_linear_1934_16302" x1="127.458" y1="436.411" x2="146.19" y2="436.411" gradientUnits="userSpaceOnUse">
<stop stop-color="#FEFEFE"/>
<stop offset="1" stop-color="#E3F7FE"/>
</linearGradient>
<linearGradient id="paint13_linear_1934_16302" x1="-53.8567" y1="636.313" x2="75.2824" y2="636.313" gradientUnits="userSpaceOnUse">
<stop stop-color="#FEFEFE"/>
<stop offset="1" stop-color="#E3F7FE"/>
</linearGradient>
<linearGradient id="paint14_linear_1934_16302" x1="-9.60044" y1="636.312" x2="31.0053" y2="636.312" gradientUnits="userSpaceOnUse">
<stop stop-color="#47C4B2"/>
<stop offset="1" stop-color="#84D37D"/>
</linearGradient>
<linearGradient id="paint15_linear_1934_16302" x1="1.33659" y1="636.355" x2="20.0481" y2="636.355" gradientUnits="userSpaceOnUse">
<stop stop-color="#FEFEFE"/>
<stop offset="1" stop-color="#E3F7FE"/>
</linearGradient>
<linearGradient id="paint16_linear_1934_16302" x1="208.558" y1="227.006" x2="145.189" y2="324.073" gradientUnits="userSpaceOnUse">
<stop stop-color="#FECA45"/>
<stop offset="1" stop-color="#FF9F2D"/>
</linearGradient>
<linearGradient id="paint17_linear_1934_16302" x1="5.12305" y1="319.513" x2="73.4352" y2="319.513" gradientUnits="userSpaceOnUse">
<stop stop-color="#F9AF38"/>
<stop offset="1" stop-color="#F9CB38"/>
</linearGradient>
<linearGradient id="paint18_linear_1934_16302" x1="5.12305" y1="322.616" x2="73.4352" y2="322.616" gradientUnits="userSpaceOnUse">
<stop stop-color="#F99238"/>
<stop offset="1" stop-color="#F9C238"/>
</linearGradient>
<linearGradient id="paint19_linear_1934_16302" x1="0" y1="305.293" x2="68.3122" y2="305.293" gradientUnits="userSpaceOnUse">
<stop stop-color="#F9AF38"/>
<stop offset="1" stop-color="#F9CB38"/>
</linearGradient>
<linearGradient id="paint20_linear_1934_16302" x1="0" y1="308.397" x2="68.3122" y2="308.397" gradientUnits="userSpaceOnUse">
<stop stop-color="#F99238"/>
<stop offset="1" stop-color="#F9C238"/>
</linearGradient>
<linearGradient id="paint21_linear_1934_16302" x1="5.12305" y1="276.856" x2="73.4352" y2="276.856" gradientUnits="userSpaceOnUse">
<stop stop-color="#F9AF38"/>
<stop offset="1" stop-color="#F9CB38"/>
</linearGradient>
<linearGradient id="paint22_linear_1934_16302" x1="5.12305" y1="279.959" x2="73.4352" y2="279.959" gradientUnits="userSpaceOnUse">
<stop stop-color="#F99238"/>
<stop offset="1" stop-color="#F9C238"/>
</linearGradient>
<linearGradient id="paint23_linear_1934_16302" x1="5.12305" y1="291.075" x2="73.4352" y2="291.075" gradientUnits="userSpaceOnUse">
<stop stop-color="#F9AF38"/>
<stop offset="1" stop-color="#F9CB38"/>
</linearGradient>
<linearGradient id="paint24_linear_1934_16302" x1="5.12305" y1="294.178" x2="73.4352" y2="294.178" gradientUnits="userSpaceOnUse">
<stop stop-color="#F99238"/>
<stop offset="1" stop-color="#F9C238"/>
</linearGradient>
<linearGradient id="paint25_linear_1934_16302" x1="39.9551" y1="213.596" x2="39.9551" y2="270.65" gradientUnits="userSpaceOnUse">
<stop stop-color="#F99238"/>
<stop offset="1" stop-color="#F9C238"/>
</linearGradient>
<linearGradient id="paint26_linear_1934_16302" x1="39.9522" y1="219.209" x2="39.9522" y2="265.041" gradientUnits="userSpaceOnUse">
<stop stop-color="#F9AF38"/>
<stop offset="1" stop-color="#F9CB38"/>
</linearGradient>
<linearGradient id="paint27_linear_1934_16302" x1="27.9248" y1="242.13" x2="50.633" y2="242.13" gradientUnits="userSpaceOnUse">
<stop stop-color="#FEFEFE"/>
<stop offset="1" stop-color="#E3F7FE"/>
</linearGradient>
</defs>
</svg>
