<svg width="18" height="18" viewBox="0 0 18 18" fill="none" xmlns="http://www.w3.org/2000/svg">
<path d="M15.625 0H1.875C1.37772 0 0.900805 0.197544 0.549175 0.549175C0.197544 0.900805 0 1.37772 0 1.875L0 15.625C0 16.1223 0.197544 16.5992 0.549175 16.9508C0.900805 17.3025 1.37772 17.5 1.875 17.5H15.625C16.1223 17.5 16.5992 17.3025 16.9508 16.9508C17.3025 16.5992 17.5 16.1223 17.5 15.625V1.875C17.5 1.37772 17.3025 0.900805 16.9508 0.549175C16.5992 0.197544 16.1223 0 15.625 0ZM4.961 13.77C4.85435 13.9431 4.68442 14.0677 4.48732 14.1175C4.29023 14.1672 4.08149 14.1382 3.90547 14.0365C3.72944 13.9348 3.6 13.7685 3.54464 13.5729C3.48928 13.3773 3.51237 13.1678 3.609 12.989L4.168 12.024C4.43928 11.9208 4.73674 11.9083 5.0157 11.9886C5.29465 12.0688 5.54004 12.2374 5.715 12.469L4.961 13.77ZM10.387 11.665H3.281C3.07387 11.665 2.87522 11.5827 2.72875 11.4363C2.58228 11.2898 2.5 11.0911 2.5 10.884C2.5 10.6769 2.58228 10.4782 2.72875 10.3317C2.87522 10.1853 3.07387 10.103 3.281 10.103H5.273L7.828 5.68L7.028 4.297C6.97321 4.20809 6.9368 4.1091 6.92094 4.00588C6.90507 3.90266 6.91007 3.7973 6.93564 3.69604C6.96121 3.59479 7.00682 3.49969 7.06978 3.41637C7.13275 3.33305 7.21178 3.2632 7.30222 3.21097C7.39265 3.15873 7.49264 3.12516 7.59627 3.11224C7.6999 3.09932 7.80507 3.10732 7.90556 3.13576C8.00605 3.1642 8.09981 3.2125 8.1813 3.27781C8.26279 3.34313 8.33036 3.42412 8.38 3.516L8.728 4.116L9.076 3.516C9.18265 3.34294 9.35258 3.21829 9.54968 3.16853C9.74677 3.11876 9.95551 3.1478 10.1315 3.24949C10.3076 3.35117 10.437 3.51748 10.4924 3.71308C10.5477 3.90868 10.5246 4.11815 10.428 4.297L7.076 10.097H9.5C9.67875 10.1075 9.85202 10.1626 10.004 10.2573C10.156 10.352 10.2818 10.4833 10.37 10.6391C10.4582 10.7949 10.506 10.9703 10.5089 11.1494C10.5119 11.3284 10.47 11.5053 10.387 11.664V11.665ZM14.219 11.665H13.086L13.852 12.989C13.9068 13.0779 13.9432 13.1769 13.9591 13.2801C13.9749 13.3833 13.9699 13.4887 13.9444 13.59C13.9188 13.6912 13.8732 13.7863 13.8102 13.8696C13.7473 13.953 13.6682 14.0228 13.5778 14.075C13.4874 14.1273 13.3874 14.1608 13.2837 14.1738C13.1801 14.1867 13.0749 14.1787 12.9744 14.1502C12.874 14.1218 12.7802 14.0735 12.6987 14.0082C12.6172 13.9429 12.5496 13.8619 12.5 13.77C11.2147 11.5473 10.251 9.88067 9.609 8.77C9.35292 8.36105 9.24107 7.87817 9.29127 7.39828C9.34147 6.91839 9.55083 6.4691 9.886 6.122C10.398 7.00867 11.1647 8.33667 12.186 10.106H14.217C14.4243 10.106 14.623 10.1883 14.7696 10.3349C14.9162 10.4815 14.9985 10.6802 14.9985 10.8875C14.9985 11.0948 14.9162 11.2935 14.7696 11.4401C14.623 11.5867 14.4243 11.669 14.217 11.669L14.219 11.665Z" fill="url(#paint0_linear_3216_3219)"/>
<defs>
<linearGradient id="paint0_linear_3216_3219" x1="8.75" y1="-0.4725" x2="8.75" y2="18.62" gradientUnits="userSpaceOnUse">
<stop stop-color="#1CBEFF"/>
<stop offset="1" stop-color="#2078F6"/>
</linearGradient>
</defs>
</svg>
