<svg width="18" height="14" viewBox="0 0 18 14" fill="none" xmlns="http://www.w3.org/2000/svg">
<path d="M13.606 0.781005C13.4343 0.539001 13.2069 0.341758 12.9431 0.205855C12.6793 0.0699507 12.3868 -0.000643629 12.09 4.42176e-06L1.86 0.00900472C1.36809 0.00847173 0.896047 0.203029 0.547373 0.550017C0.198698 0.897004 0.00185297 1.3681 0 1.86V11.16C0.00185297 11.6519 0.198698 12.123 0.547373 12.47C0.896047 12.817 1.36809 13.0115 1.86 13.011L12.09 13.02C12.3868 13.0207 12.6793 12.9501 12.9431 12.8142C13.2069 12.6783 13.4343 12.481 13.606 12.239L17.67 6.51L13.606 0.781005Z" fill="#FEC952"/>
</svg>
