<svg width="90" height="75" viewBox="0 0 90 75" fill="none" xmlns="http://www.w3.org/2000/svg">
<path fill-rule="evenodd" clip-rule="evenodd" d="M46.5195 74.4803C55.1944 62.6341 68.6216 62.6382 78.2268 55.4781C93.7657 43.8953 92.5582 15.5398 82.5183 0C78.5871 29.2316 46.5195 21.8155 46.5195 74.4828" fill="url(#paint0_linear_1934_16291)"/>
<path opacity="0.3" fill-rule="evenodd" clip-rule="evenodd" d="M46.5195 74.4795C55.1944 62.6332 68.6216 62.6374 78.2268 55.4781C84.1929 51.0314 87.6887 44.1092 89.1654 36.3909C81.7674 34.5342 74.0067 35.0195 66.8745 37.7846C59.7422 40.5498 53.5622 45.4694 49.1237 51.915C47.4942 57.9554 46.5195 65.3021 46.5195 74.477" fill="#267C26"/>
<path opacity="0.3" fill-rule="evenodd" clip-rule="evenodd" d="M46.5195 74.4803C55.1944 62.6341 68.6216 62.6382 78.2268 55.4781C93.7657 43.8953 92.5582 15.5398 82.5183 0C92.1924 53.3947 51.7644 44.3362 46.5195 74.4828" fill="#267C26"/>
<path opacity="0.3" fill-rule="evenodd" clip-rule="evenodd" d="M70.8711 21.1442C60.2737 31.2662 46.5195 39.9878 46.5195 74.4794C50.8411 64.8033 59.9855 58.2526 70.8711 54.8555V21.1442Z" fill="black"/>
<path fill-rule="evenodd" clip-rule="evenodd" d="M67.384 2.60193V51.8762C58.0559 56.6052 50.2235 64.2756 46.5195 74.4803V37.9441C46.5195 22.2309 55.15 9.96763 67.384 2.60193Z" fill="url(#paint1_linear_1934_16291)"/>
<path opacity="0.3" fill-rule="evenodd" clip-rule="evenodd" d="M46.5195 74.4803C46.5195 44.655 56.8033 34.1011 66.4378 25.2473V51.2585C58.47 55.4211 49.5584 63.6316 46.5195 74.477" fill="#1D5204"/>
<path opacity="0.3" fill-rule="evenodd" clip-rule="evenodd" d="M46.5195 44.996C46.5195 29.2844 55.15 17.0204 67.384 9.65384V2.60193C55.1508 9.96845 46.5195 22.2309 46.5195 37.9441V44.996Z" fill="#DBE665"/>
<path opacity="0.3" fill-rule="evenodd" clip-rule="evenodd" d="M67.384 2.60193V51.8762C58.0559 56.6052 50.2235 64.2756 46.5195 74.4803C49.5584 63.6349 58.4692 55.4228 66.4378 51.2618V3.18821C66.7508 2.99003 67.0662 2.7946 67.384 2.60193Z" fill="#ECF955"/>
<path fill-rule="evenodd" clip-rule="evenodd" d="M43.4794 74.4803C34.8061 62.6341 21.3781 62.6382 11.7729 55.4781C-3.76601 43.8953 -2.55853 15.5398 7.48138 0C11.4126 29.2316 43.4794 21.8155 43.4794 74.4828" fill="url(#paint2_linear_1934_16291)"/>
<path opacity="0.3" fill-rule="evenodd" clip-rule="evenodd" d="M43.4799 74.4795C34.8066 62.6332 21.3786 62.6374 11.7734 55.4781C5.80723 51.0314 2.31067 44.1092 0.833984 36.3909C8.23193 34.5342 15.9927 35.0195 23.1249 37.7846C30.2571 40.5498 36.4372 45.4694 40.8757 51.915C42.5052 57.9554 43.4799 65.3021 43.4799 74.477" fill="#267C26"/>
<path opacity="0.3" fill-rule="evenodd" clip-rule="evenodd" d="M43.4794 74.4803C34.8061 62.6341 21.3781 62.6382 11.7729 55.4781C-3.76601 43.8953 -2.55853 15.5398 7.48138 0C-2.19272 53.3947 38.2353 44.3362 43.4794 74.4828" fill="#267C26"/>
<path opacity="0.3" fill-rule="evenodd" clip-rule="evenodd" d="M19.1289 21.1442C29.7254 31.2662 43.4796 39.9878 43.4796 74.4794C39.1565 64.8033 30.0144 58.2526 19.1289 54.8555V21.1442Z" fill="black"/>
<path fill-rule="evenodd" clip-rule="evenodd" d="M22.6152 2.60193V51.8762C31.9433 56.6052 39.7749 64.2756 43.4789 74.4803V37.9441C43.4789 22.2309 34.8484 9.96763 22.6152 2.60193Z" fill="url(#paint3_linear_1934_16291)"/>
<path opacity="0.3" fill-rule="evenodd" clip-rule="evenodd" d="M43.479 74.4803C43.479 44.655 33.196 34.1011 23.5615 25.2473V51.2585C31.5301 55.4211 40.4409 63.6316 43.479 74.477" fill="#1D5204"/>
<path opacity="0.3" fill-rule="evenodd" clip-rule="evenodd" d="M43.4789 44.996C43.4789 29.2844 34.8484 17.0204 22.6152 9.65384V2.60193C34.8468 9.96845 43.4789 22.2309 43.4789 37.9441V44.996Z" fill="#DBE665"/>
<path opacity="0.3" fill-rule="evenodd" clip-rule="evenodd" d="M22.6152 2.60193V51.8762C31.9433 56.6052 39.7749 64.2756 43.4789 74.4803C40.4408 63.6349 31.5292 55.4228 23.5614 51.2618V3.18821C23.2447 2.99086 22.9343 2.79433 22.6152 2.60193Z" fill="#ECF955"/>
<defs>
<linearGradient id="paint0_linear_1934_16291" x1="68.3466" y1="87.4428" x2="67.5811" y2="-9.6043" gradientUnits="userSpaceOnUse">
<stop stop-color="#267C26"/>
<stop offset="1" stop-color="#31CF74"/>
</linearGradient>
<linearGradient id="paint1_linear_1934_16291" x1="56.8266" y1="90.7967" x2="60.0426" y2="-9.37909" gradientUnits="userSpaceOnUse">
<stop stop-color="#1F5507"/>
<stop offset="1" stop-color="#6FDB04"/>
</linearGradient>
<linearGradient id="paint2_linear_1934_16291" x1="21.8266" y1="87.5917" x2="21.0611" y2="-9.45533" gradientUnits="userSpaceOnUse">
<stop stop-color="#267C26"/>
<stop offset="1" stop-color="#4AD585"/>
</linearGradient>
<linearGradient id="paint3_linear_1934_16291" x1="32.9219" y1="90.7248" x2="35.8911" y2="-9.46494" gradientUnits="userSpaceOnUse">
<stop stop-color="#1F5507"/>
<stop offset="1" stop-color="#6FDB04"/>
</linearGradient>
</defs>
</svg>
