<svg width="18" height="15" viewBox="0 0 18 15" fill="none" xmlns="http://www.w3.org/2000/svg">
<path d="M15.903 0H1.767C1.29976 0.00185279 0.852319 0.1889 0.522773 0.520133C0.193227 0.851367 0.00846682 1.29976 0.00899994 1.767L0 12.367C0.00131934 12.8352 0.187908 13.2839 0.519 13.615C0.850091 13.9461 1.29877 14.1327 1.767 14.134H15.903C16.3712 14.1327 16.8199 13.9461 17.151 13.615C17.4821 13.2839 17.6687 12.8352 17.67 12.367V1.767C17.6687 1.29877 17.4821 0.850091 17.151 0.519C16.8199 0.187909 16.3712 0.00131934 15.903 0ZM15.903 3.534L8.833 7.952L1.767 3.534V1.767L8.833 6.185L15.903 1.767V3.534Z" fill="#D4463A"/>
</svg>
