<svg width="42" height="42" viewBox="0 0 42 42" fill="none" xmlns="http://www.w3.org/2000/svg">
<path d="M28.875 16.4499L13.125 7.36743" stroke="white" stroke-width="2.3" stroke-linecap="round" stroke-linejoin="round"/>
<path d="M36.75 28.0001V14.0001C36.7494 13.3863 36.5874 12.7835 36.2802 12.2521C35.973 11.7207 35.5315 11.2795 35 10.9726L22.75 3.97257C22.2179 3.66538 21.6144 3.50366 21 3.50366C20.3856 3.50366 19.7821 3.66538 19.25 3.97257L7 10.9726C6.46846 11.2795 6.02697 11.7207 5.71981 12.2521C5.41265 12.7835 5.25063 13.3863 5.25 14.0001V28.0001C5.25063 28.6138 5.41265 29.2167 5.71981 29.748C6.02697 30.2794 6.46846 30.7207 7 31.0276L19.25 38.0276C19.7821 38.3348 20.3856 38.4965 21 38.4965C21.6144 38.4965 22.2179 38.3348 22.75 38.0276L35 31.0276C35.5315 30.7207 35.973 30.2794 36.2802 29.748C36.5874 29.2167 36.7494 28.6138 36.75 28.0001Z" stroke="white" stroke-width="2.3" stroke-linecap="round" stroke-linejoin="round"/>
<path d="M5.72266 12.1799L21.0002 21.0174L36.2777 12.1799" stroke="white" stroke-width="2.3" stroke-linecap="round" stroke-linejoin="round"/>
<path d="M21 38.64V21" stroke="white" stroke-width="2.3" stroke-linecap="round" stroke-linejoin="round"/>
</svg>
