<svg width="230" height="64" viewBox="0 0 230 64" fill="none" xmlns="http://www.w3.org/2000/svg">
<path fill-rule="evenodd" clip-rule="evenodd" d="M0 0H71.0907H72.1931H179.819H182.954H229.717V3.12447C228.65 3.12447 227.627 3.49428 226.873 4.15271C226.118 4.81114 225.693 5.70439 225.691 6.63638C225.691 7.56945 226.115 8.46431 226.87 9.12409C227.625 9.78387 228.649 10.1545 229.717 10.1545V13.9039C228.649 13.9039 227.625 14.2746 226.87 14.9343C226.115 15.5941 225.691 16.489 225.691 17.4221C225.693 18.354 226.118 19.2473 226.873 19.9057C227.627 20.5642 228.65 20.934 229.717 20.934V24.6833C228.649 24.6833 227.625 25.054 226.87 25.7138C226.115 26.3736 225.691 27.2684 225.691 28.2015C225.693 29.1335 226.118 30.0267 226.873 30.6852C227.627 31.3436 228.65 31.7134 229.717 31.7134V35.4628C228.649 35.4628 227.625 35.8334 226.87 36.4932C226.115 37.153 225.691 38.0478 225.691 38.9809C225.691 39.4426 225.795 39.8998 225.997 40.3263C226.2 40.7528 226.497 41.1402 226.87 41.4664C227.244 41.7926 227.688 42.0512 228.177 42.2273C228.665 42.4034 229.188 42.4936 229.717 42.4928V46.2422C228.65 46.2422 227.627 46.612 226.873 47.2704C226.118 47.9289 225.693 48.8221 225.691 49.7541C225.691 50.6872 226.115 51.582 226.87 52.2418C227.625 52.9016 228.649 53.2723 229.717 53.2723V56.9466C229.174 56.9266 228.633 57.0027 228.125 57.1704C227.617 57.338 227.153 57.5937 226.761 57.9221C226.369 58.2505 226.057 58.6447 225.844 59.0812C225.631 59.5176 225.521 59.9872 225.521 60.4617C225.521 60.9361 225.631 61.4057 225.844 61.8422C226.057 62.2786 226.369 62.6729 226.761 63.0012C227.153 63.3296 227.617 63.5853 228.125 63.7529C228.633 63.9206 229.174 63.9967 229.717 63.9767V67.7261C229.174 67.7061 228.633 67.7822 228.125 67.9498C227.617 68.1174 227.153 68.3731 226.761 68.7015C226.369 69.0299 226.057 69.4241 225.844 69.8606C225.631 70.297 225.521 70.7666 225.521 71.2411C225.521 71.7156 225.631 72.1852 225.844 72.6216C226.057 73.058 226.369 73.4523 226.761 73.7807C227.153 74.109 227.617 74.3647 228.125 74.5324C228.633 74.7 229.174 74.7761 229.717 74.7561V78.5055C229.174 78.4855 228.633 78.5616 228.125 78.7292C227.617 78.8969 227.153 79.1526 226.761 79.4809C226.369 79.8093 226.057 80.2036 225.844 80.64C225.631 81.0764 225.521 81.546 225.521 82.0205C225.521 82.495 225.631 82.9646 225.844 83.401C226.057 83.8375 226.369 84.2317 226.761 84.5601C227.153 84.8885 227.617 85.1442 228.125 85.3118C228.633 85.4794 229.174 85.5555 229.717 85.5356V89.2849C229.174 89.2649 228.633 89.341 228.125 89.5087C227.617 89.6763 227.153 89.932 226.761 90.2604C226.369 90.5887 226.057 90.983 225.844 91.4194C225.631 91.8559 225.521 92.3255 225.521 92.7999C225.521 93.2744 225.631 93.744 225.844 94.1805C226.057 94.6169 226.369 95.0112 226.761 95.3395C227.153 95.6679 227.617 95.9236 228.125 96.0912C228.633 96.2589 229.174 96.335 229.717 96.315V100.064C229.174 100.044 228.633 100.12 228.125 100.288C227.617 100.456 227.153 100.711 226.761 101.04C226.369 101.368 226.057 101.762 225.844 102.199C225.631 102.635 225.521 103.105 225.521 103.579C225.521 104.054 225.631 104.523 225.844 104.96C226.057 105.396 226.369 105.791 226.761 106.119C227.153 106.447 227.617 106.703 228.125 106.871C228.633 107.038 229.174 107.114 229.717 107.094V111L182.954 111L179.819 111H72.1931L71.0907 111L0 111V107.875C1.03201 107.837 2.00734 107.45 2.72217 106.795C3.43701 106.14 3.83611 105.268 3.83611 104.36C3.83611 103.453 3.43701 102.58 2.72217 101.925C2.00734 101.27 1.03201 100.883 0 100.845V97.0953C1.03201 97.0571 2.00734 96.67 2.72217 96.015C3.43701 95.3599 3.83611 94.4875 3.83611 93.5801C3.83611 92.6726 3.43701 91.8003 2.72217 91.1452C2.00734 90.4902 1.03201 90.1031 0 90.0649V86.3153C1.03201 86.277 2.00734 85.89 2.72217 85.2349C3.43701 84.5799 3.83611 83.7075 3.83611 82.8C3.83611 81.8926 3.43701 81.0202 2.72217 80.3652C2.00734 79.7101 1.03201 79.3231 0 79.2848V75.5352C1.03201 75.497 2.00734 75.1099 2.72217 74.4549C3.43701 73.7998 3.83611 72.9275 3.83611 72.02C3.83611 71.1126 3.43701 70.2402 2.72217 69.5851C2.00734 68.9301 1.03201 68.543 0 68.5048V64.7552C1.03201 64.717 2.00734 64.3299 2.72217 63.6749C3.43701 63.0198 3.83611 62.1474 3.83611 61.24C3.83611 60.3325 3.43701 59.4602 2.72217 58.8051C2.00734 58.1501 1.03201 57.763 0 57.7248V53.9752C0.525586 53.9752 1.04603 53.8841 1.53152 53.7072C2.01701 53.5303 2.45801 53.2711 2.82933 52.9443C3.20064 52.6175 3.495 52.2296 3.69549 51.8028C3.89597 51.3759 3.99869 50.9186 3.99775 50.4568C3.99775 49.9956 3.89431 49.5389 3.6934 49.1128C3.4925 48.6867 3.19803 48.2995 2.82681 47.9734C2.45559 47.6473 2.01489 47.3886 1.52987 47.2121C1.04484 47.0356 0.524987 46.9447 0 46.9447V43.1951C1.04618 43.197 2.05136 42.8378 2.79907 42.1949C3.54677 41.5521 3.97724 40.677 3.99775 39.758C3.99869 39.2963 3.89597 38.8389 3.69549 38.4121C3.495 37.9853 3.20064 37.5973 2.82933 37.2705C2.45801 36.9438 2.01701 36.6845 1.53152 36.5076C1.04603 36.3307 0.525586 36.2397 0 36.2397V32.4901C1.06026 32.4901 2.07709 32.1201 2.82681 31.4614C3.57652 30.8028 3.99775 29.9095 3.99775 28.978C3.99869 28.5162 3.89597 28.0589 3.69549 27.632C3.495 27.2052 3.20064 26.8173 2.82933 26.4905C2.45801 26.1637 2.01701 25.9045 1.53152 25.7276C1.04603 25.5507 0.525586 25.4596 0 25.4596V21.7101C1.06026 21.7101 2.07709 21.34 2.82681 20.6814C3.57652 20.0227 3.99775 19.1294 3.99775 18.198C3.99775 17.2665 3.57652 16.3732 2.82681 15.7145C2.07709 15.0559 1.06026 14.6858 0 14.6858V10.9363C0.525586 10.9363 1.04603 10.8452 1.53152 10.6683C2.01701 10.4914 2.45801 10.2322 2.82933 9.90539C3.20064 9.5786 3.495 9.19069 3.69549 8.76386C3.89597 8.33703 3.99869 7.87966 3.99775 7.41792C3.99775 6.48645 3.57652 5.59313 2.82681 4.93449C2.07709 4.27584 1.06026 3.90581 0 3.90581V0Z" fill="#FA6758"/>
</svg>
