<svg width="12" height="12" viewBox="0 0 12 12" fill="none" xmlns="http://www.w3.org/2000/svg">
<path d="M6 0C4.81331 0 3.65328 0.351894 2.66658 1.01118C1.67989 1.67047 0.910851 2.60754 0.456725 3.7039C0.00259972 4.80026 -0.11622 6.00665 0.115291 7.17054C0.346802 8.33443 0.918247 9.40352 1.75736 10.2426C2.59648 11.0818 3.66557 11.6532 4.82946 11.8847C5.99335 12.1162 7.19975 11.9974 8.2961 11.5433C9.39246 11.0891 10.3295 10.3201 10.9888 9.33342C11.6481 8.34672 12 7.18669 12 6C11.9996 4.40881 11.3674 2.8829 10.2422 1.75776C9.1171 0.632626 7.59119 0.000367437 6 0ZM6 2.66112C6.20091 2.66112 6.3973 2.72069 6.56435 2.83229C6.73141 2.94389 6.86163 3.10252 6.93854 3.28812C7.01545 3.47372 7.03561 3.67795 6.99647 3.87501C6.95733 4.07206 6.86064 4.25308 6.71862 4.39519C6.57661 4.5373 6.39565 4.63412 6.19863 4.67339C6.0016 4.71267 5.79735 4.69265 5.6117 4.61586C5.42605 4.53908 5.26733 4.40897 5.15562 4.24199C5.0439 4.07501 4.9842 3.87866 4.98406 3.67775C4.98397 3.54428 5.01018 3.4121 5.0612 3.28876C5.11221 3.16542 5.18703 3.05334 5.28138 2.95893C5.37573 2.86452 5.48775 2.78962 5.61106 2.73852C5.73436 2.68742 5.86653 2.66112 6 2.66112ZM7.35482 8.80665C7.35482 8.84478 7.34731 8.88254 7.33271 8.91777C7.31812 8.953 7.29673 8.98501 7.26977 9.01197C7.24281 9.03893 7.2108 9.06032 7.17557 9.07491C7.14034 9.08951 7.10258 9.09702 7.06445 9.09702H4.93763C4.86062 9.09702 4.78677 9.06643 4.73231 9.01197C4.67786 8.95752 4.64726 8.88366 4.64726 8.80665V8.22592C4.64726 8.14891 4.67786 8.07505 4.73231 8.0206C4.78677 7.96614 4.86062 7.93555 4.93763 7.93555H5.228V6.38739H4.93763C4.86062 6.38739 4.78677 6.35679 4.73231 6.30234C4.67786 6.24788 4.64726 6.17403 4.64726 6.09702V5.51628C4.64726 5.43927 4.67786 5.36542 4.73231 5.31096C4.78677 5.25651 4.86062 5.22592 4.93763 5.22592H6.48372C6.56073 5.22592 6.63458 5.25651 6.68904 5.31096C6.74349 5.36542 6.77408 5.43927 6.77408 5.51628V7.93555H7.06445C7.10258 7.93555 7.14034 7.94306 7.17557 7.95765C7.2108 7.97224 7.24281 7.99363 7.26977 8.0206C7.29673 8.04756 7.31812 8.07957 7.33271 8.1148C7.34731 8.15003 7.35482 8.18779 7.35482 8.22592V8.80665Z" fill="white"/>
</svg>
