<svg width="18" height="18" viewBox="0 0 18 18" fill="none" xmlns="http://www.w3.org/2000/svg">
<path d="M8.909 6.38751e-05C7.78515 -0.00427811 6.67144 0.212784 5.63147 0.638857C4.59151 1.06493 3.64565 1.69167 2.8479 2.48329C2.05015 3.27491 1.41613 4.21591 0.98205 5.25256C0.54797 6.28921 0.322325 7.40121 0.318 8.52506C0.316439 10.0772 0.743089 11.5997 1.551 12.9251L0 17.5001L4.756 15.9891C6.06043 16.7045 7.52805 17.0695 9.01564 17.0485C10.5032 17.0276 11.96 16.6213 13.2437 15.8695C14.5275 15.1176 15.5944 14.0457 16.3404 12.7585C17.0863 11.4713 17.4859 10.0127 17.5 8.52506C17.4957 7.40121 17.27 6.28921 16.8359 5.25256C16.4019 4.21591 15.7679 3.27491 14.9701 2.48329C14.1724 1.69167 13.2265 1.06493 12.1865 0.638857C11.1466 0.212784 10.0329 -0.00427811 8.909 6.38751e-05ZM13.181 11.7621C13.0107 12.0227 12.7874 12.2445 12.5257 12.4132C12.264 12.5819 11.9697 12.6936 11.662 12.7411C11.262 12.7621 11.248 13.0531 9.051 12.0991C7.54389 11.3232 6.28764 10.136 5.428 8.67506C4.93996 8.00989 4.65797 7.21606 4.617 6.39206C4.62352 6.05257 4.701 5.7182 4.84446 5.41044C4.98792 5.10269 5.19419 4.82835 5.45 4.60506C5.528 4.52476 5.62126 4.46085 5.72429 4.41706C5.82732 4.37327 5.93805 4.35049 6.05 4.35006C6.223 4.35006 6.335 4.34506 6.463 4.35006C6.591 4.35506 6.783 4.32306 6.949 4.76606C7.115 5.20906 7.513 6.29506 7.564 6.40606C7.59586 6.46469 7.61255 6.53034 7.61255 6.59706C7.61255 6.66378 7.59586 6.72944 7.564 6.78806C7.50366 6.9169 7.4252 7.03644 7.331 7.14306C7.216 7.26606 7.09 7.41806 6.988 7.51206C6.886 7.60606 6.755 7.73006 6.875 7.95206C7.18381 8.52405 7.57574 9.04707 8.038 9.50406C8.54245 9.98335 9.12651 10.3711 9.764 10.6501C9.979 10.7671 10.108 10.7501 10.242 10.6141C10.376 10.4781 10.814 9.99906 10.968 9.78706C11.122 9.57506 11.268 9.61606 11.468 9.69606C11.668 9.77606 12.724 10.3431 12.94 10.4601C13.156 10.5771 13.299 10.6371 13.351 10.7301C13.3977 11.0833 13.3386 11.4425 13.181 11.7621Z" fill="#179A0C"/>
</svg>
